<svg width="28" height="22" viewBox="0 0 28 22" fill="none" xmlns="http://www.w3.org/2000/svg">
<path d="M21.7386 13.8714C21.7709 13.9684 21.7838 14.0707 21.7765 14.1726C21.7693 14.2745 21.742 14.374 21.6963 14.4654C21.6505 14.5567 21.5873 14.6382 21.5101 14.7051C21.4329 14.772 21.3432 14.8231 21.2463 14.8553L17.7464 16.0219C17.5506 16.0871 17.337 16.0719 17.1525 15.9796C16.968 15.8872 16.8277 15.7254 16.7625 15.5296C16.6973 15.3339 16.7126 15.1202 16.8049 14.9357C16.8972 14.7512 17.0591 14.6109 17.2548 14.5458L20.7547 13.3791C20.8517 13.3468 20.954 13.3339 21.0559 13.3412C21.1578 13.3485 21.2573 13.3757 21.3487 13.4215C21.44 13.4672 21.5215 13.5304 21.5884 13.6077C21.6553 13.6849 21.7063 13.7745 21.7386 13.8714Z" fill="white"/>
<path fill-rule="evenodd" clip-rule="evenodd" d="M0.532336 9.41039L3.11138 10.2698V16.8388C3.11139 17.0005 3.1618 17.1582 3.25562 17.2899C3.34943 17.4217 3.48198 17.5209 3.63481 17.5737L13.7395 21.0713C13.8992 21.1281 14.0732 21.1311 14.2349 21.0799L14.2458 21.0768L14.2574 21.0729L24.3652 17.5737C24.518 17.5209 24.6506 17.4217 24.7444 17.2899C24.8382 17.1582 24.8886 17.0005 24.8886 16.8388V10.2698L27.4677 9.41039C27.5866 9.37083 27.6943 9.3031 27.7814 9.21297C27.8686 9.12283 27.9326 9.01296 27.9681 8.89273C28.0037 8.7725 28.0096 8.64545 27.9854 8.52244C27.9612 8.39942 27.9077 8.28406 27.8293 8.1862L24.7183 4.29741C24.626 4.18253 24.503 4.09622 24.3636 4.04853L14.2543 0.548617C14.0896 0.491607 13.9104 0.491607 13.7457 0.548617L3.63637 4.04853C3.49696 4.09622 3.37397 4.18253 3.28171 4.29741L0.170678 8.1862C0.0923092 8.28406 0.038759 8.39942 0.0145896 8.52244C-0.00957981 8.64545 -0.00365179 8.7725 0.0318685 8.89273C0.0673888 9.01296 0.131448 9.12283 0.218589 9.21297C0.30573 9.3031 0.41337 9.37083 0.532336 9.41039ZM11.9148 12.6179L13.2222 10.7513V19.2467L4.6669 16.285V10.7878L11.0321 12.9095C11.1911 12.9624 11.3629 12.9625 11.522 12.9098C11.681 12.8571 11.8188 12.7552 11.9148 12.6179ZM6.26675 4.78351L14 7.46056L21.7333 4.78351L14 2.10647L6.26675 4.78351ZM16.0852 12.6186L14.7778 10.7505V19.2467L23.3331 16.285V10.7878L16.9679 12.9095C16.8089 12.9624 16.6371 12.9625 16.478 12.9098C16.319 12.8571 16.1812 12.7544 16.0852 12.6171M4.15358 5.69816L2.08241 8.28731L6.36863 9.71605L10.973 11.2506L12.7719 8.68163L12.6669 8.64508L4.15358 5.69816ZM25.9176 8.28731L23.8464 5.69738L15.2281 8.68163L17.027 11.2506L25.9176 8.28731Z" fill="white"/>
</svg>
