<svg width="24" height="24" viewBox="0 0 24 24" fill="none" xmlns="http://www.w3.org/2000/svg">
<path d="M16.344 0.407945C15.3653 0.0314987 14.2818 0.0314987 13.3031 0.407945L8.41694 2.287C8.01731 2.44056 7.6736 2.71163 7.43115 3.06447C7.1887 3.41731 7.05888 3.83536 7.05882 4.26348V5.81642C7.52756 5.75736 8.00185 5.75736 8.47059 5.81642V4.26348C8.47044 4.1208 8.51353 3.98143 8.59418 3.86373C8.67482 3.74604 8.78924 3.65554 8.92235 3.60418L13.8099 1.72512C14.4623 1.47416 15.1847 1.47416 15.8372 1.72512L20.7233 3.60418C20.8564 3.65554 20.9708 3.74604 21.0515 3.86373C21.1321 3.98143 21.1752 4.1208 21.1751 4.26348V10.6023C21.6814 10.8611 22.152 11.1703 22.5868 11.5298V4.26348C22.5869 3.83553 22.4573 3.4176 22.2151 3.06477C21.9729 2.71195 21.6295 2.44078 21.2301 2.287L16.344 0.407945ZM14.1713 9.34583C14.5831 9.50447 14.935 9.78779 15.1779 10.1562C14.7114 10.3131 14.2609 10.514 13.8325 10.7562C13.781 10.7176 13.7245 10.6863 13.6645 10.663L8.77835 8.78395C8.12589 8.53298 7.40352 8.53298 6.75106 8.78395L1.86353 10.663C1.73019 10.7145 1.61562 10.8052 1.53495 10.9231C1.45429 11.0411 1.41133 11.1808 1.41176 11.3237V18.0719C1.41162 18.2146 1.4547 18.354 1.53535 18.4717C1.616 18.5894 1.73042 18.6799 1.86353 18.7312L6.75106 20.6089C7.40352 20.8599 8.12589 20.8599 8.77835 20.6089L10.296 20.0258C10.4494 20.4776 10.6414 20.9082 10.872 21.3176L9.28518 21.9275C8.30648 22.3039 7.22293 22.3039 6.24424 21.9275L1.35812 20.0484C0.958486 19.8949 0.61478 19.6238 0.372326 19.271C0.129872 18.9181 5.66718e-05 18.5001 0 18.0719V11.3237C5.66718e-05 10.8956 0.129872 10.4776 0.372326 10.1247C0.61478 9.77186 0.958486 9.50079 1.35812 9.34724L6.24282 7.46818C7.22194 7.09137 8.30606 7.09137 9.28518 7.46818L14.1713 9.34583ZM11.9224 11.1769C12.0769 11.1175 12.2475 11.1144 12.4041 11.1681C12.5608 11.2218 12.6936 11.3288 12.7793 11.4705C12.2677 11.8822 11.8104 12.357 11.4184 12.8837L8.47059 14.0174V17.5327C8.47059 17.7199 8.39622 17.8994 8.26384 18.0318C8.13146 18.1642 7.95192 18.2385 7.76471 18.2385C7.57749 18.2385 7.39795 18.1642 7.26557 18.0318C7.13319 17.8994 7.05882 17.7199 7.05882 17.5327V14.0174L3.09882 12.4955C3.01224 12.4621 2.93308 12.412 2.86587 12.348C2.79865 12.2841 2.74469 12.2075 2.70706 12.1227C2.66944 12.0379 2.64889 11.9465 2.64659 11.8537C2.64428 11.7609 2.66028 11.6686 2.69365 11.5821C2.72702 11.4955 2.77712 11.4163 2.84108 11.3491C2.90504 11.2819 2.98162 11.2279 3.06644 11.1903C3.15126 11.1527 3.24265 11.1321 3.33541 11.1298C3.42817 11.1275 3.52048 11.1435 3.60706 11.1769L7.76471 12.7778L11.9224 11.1769ZM19.8932 4.52324C19.8259 4.34861 19.6921 4.20783 19.5211 4.13185C19.35 4.05588 19.1558 4.05092 18.9812 4.11806L15.0762 5.62018C14.9131 5.68292 14.7325 5.68292 14.5694 5.62018L10.6645 4.11806C10.491 4.05627 10.3003 4.06471 10.1329 4.14158C9.9656 4.21845 9.83493 4.35766 9.7688 4.52952C9.70267 4.70138 9.70632 4.89228 9.77896 5.06149C9.85161 5.2307 9.9875 5.36482 10.1576 5.43524L14.0626 6.93736C14.5519 7.12558 15.0937 7.12558 15.5831 6.93736L19.488 5.43524C19.6626 5.36798 19.8034 5.23413 19.8794 5.06312C19.9554 4.8921 19.9603 4.69791 19.8932 4.52324ZM24 17.5214C24 19.2063 23.3307 20.8222 22.1393 22.0136C20.9479 23.205 19.332 23.8743 17.6471 23.8743C15.9622 23.8743 14.3463 23.205 13.1549 22.0136C11.9634 20.8222 11.2941 19.2063 11.2941 17.5214C11.2941 15.8365 11.9634 14.2206 13.1549 13.0292C14.3463 11.8377 15.9622 11.1684 17.6471 11.1684C19.332 11.1684 20.9479 11.8377 22.1393 13.0292C23.3307 14.2206 24 15.8365 24 17.5214ZM14.3252 17.0216L14.3209 17.0258C14.1917 17.1568 14.1188 17.3331 14.1176 17.5171V17.5256C14.1188 17.711 14.1928 17.8885 14.3238 18.0197L17.1473 20.8432C17.2128 20.9089 17.2907 20.961 17.3763 20.9965C17.462 21.0321 17.5538 21.0504 17.6466 21.0505C17.7393 21.0505 17.8312 21.0323 17.9169 20.9969C18.0026 20.9615 18.0805 20.9095 18.1461 20.8439C18.2117 20.7784 18.2638 20.7006 18.2994 20.6149C18.3349 20.5293 18.3533 20.4374 18.3533 20.3447C18.3534 20.2519 18.3352 20.1601 18.2998 20.0744C18.2643 19.9886 18.2124 19.9108 18.1468 19.8451L16.5275 18.2272H20.4706C20.6578 18.2272 20.8373 18.1529 20.9697 18.0205C21.1021 17.8881 21.1765 17.7086 21.1765 17.5214C21.1765 17.3341 21.1021 17.1546 20.9697 17.0222C20.8373 16.8898 20.6578 16.8155 20.4706 16.8155H16.5275L18.1468 15.1976C18.2792 15.065 18.3535 14.8854 18.3533 14.698C18.3532 14.5107 18.2787 14.3311 18.1461 14.1988C18.0136 14.0664 17.8339 13.9921 17.6466 13.9923C17.4592 13.9924 17.2797 14.0669 17.1473 14.1995L14.3252 17.0216Z" fill="white"/>
</svg>
