<svg width="30" height="28" viewBox="0 0 30 28" fill="none" xmlns="http://www.w3.org/2000/svg">
<path d="M1.14977 20.8877C1.36181 20.8877 1.58528 20.821 1.80875 20.6642V8.71484C1.80875 8.31268 1.8869 8.15639 2.24427 7.96675L12.597 2.00253C12.6303 1.2654 12.161 0.807495 11.5249 0.807495C11.2342 0.807495 10.9216 0.885639 10.5862 1.08672L1.22839 6.4701C0.133894 7.10669 0 7.30777 0 8.58095V19.2686C0 20.2287 0.456954 20.8877 1.14977 20.8877ZM5.61734 23.4674C5.81841 23.4674 6.04141 23.4007 6.27632 23.244V11.2946C6.27632 10.859 6.33207 10.7475 6.7004 10.5465L17.0526 4.57081C17.086 3.84512 16.6285 3.37625 15.9805 3.37625C15.7013 3.37625 15.3773 3.46535 15.0537 3.64404L5.67261 9.03838C4.57811 9.66401 4.45518 9.89844 4.45518 11.1492V21.8483C4.45518 22.8084 4.93548 23.4674 5.61686 23.4674M10.3965 26.1925C10.7872 26.1925 11.2566 26.0362 11.815 25.7231L20.5705 20.6976C21.5978 20.1058 22 19.4921 22 18.2408L21.9776 8.12304C21.9776 6.78267 21.4973 6.10177 20.6596 6.10177C20.2913 6.10177 19.822 6.24662 19.2974 6.54824L10.5195 11.6071C9.46975 12.2218 9.10095 12.847 9.10095 14.0644V24.1822C9.10095 25.4777 9.55838 26.1925 10.3965 26.1925ZM10.9998 24.0149C10.944 24.0035 10.9216 23.9701 10.9216 23.892L10.9998 14.0977C10.9998 13.6737 11.1227 13.4497 11.5025 13.2377L19.9563 8.26789C19.9897 8.24597 20.023 8.24597 20.0678 8.25693C20.1126 8.26837 20.146 8.30172 20.146 8.37987L20.1126 18.2075C20.1126 18.5758 19.9787 18.8555 19.6099 19.0785L11.1113 24.0035C11.0946 24.0133 11.076 24.0193 11.0567 24.0212C11.0375 24.0231 11.018 24.0213 10.9998 24.0149Z" fill="white"/>
<circle cx="22" cy="20" r="7.5" fill="#404040" stroke="#404040"/>
<path fill-rule="evenodd" clip-rule="evenodd" d="M22 27C25.8661 27 29 23.8661 29 20C29 16.1339 25.8661 13 22 13C18.1339 13 15 16.1339 15 20C15 23.8661 18.1339 27 22 27ZM22.0035 17.0306C21.8723 17.1619 21.7985 17.3399 21.7985 17.5255C21.7985 17.7111 21.8723 17.8891 22.0035 18.0204L23.2831 19.3H19.0299C18.8442 19.3 18.6662 19.3737 18.5349 19.505C18.4037 19.6363 18.3299 19.8143 18.3299 20C18.3299 20.1857 18.4037 20.3637 18.5349 20.495C18.6662 20.6263 18.8442 20.7 19.0299 20.7H23.2831L22.0035 21.9803C21.876 22.1123 21.8054 22.2891 21.807 22.4727C21.8086 22.6562 21.8822 22.8318 22.012 22.9616C22.1418 23.0914 22.3174 23.165 22.5009 23.1666C22.6845 23.1682 22.8613 23.0976 22.9933 22.9701L25.4678 20.4949C25.599 20.3636 25.6728 20.1856 25.6728 20C25.6728 19.8144 25.599 19.6364 25.4678 19.5051L22.994 17.0306C22.8627 16.8994 22.6847 16.8256 22.4991 16.8256C22.3135 16.8256 22.1348 16.8994 22.0035 17.0306Z" fill="white"/>
</svg>
