<svg width="24" height="26" viewBox="0 0 24 26" fill="none" xmlns="http://www.w3.org/2000/svg">
<path d="M0 0.0769043V24.0769H14.7692V22.2308H1.84615V1.92306H11.0769V7.46152H16.6154V9.30767H18.4615V6.16921L18.1846 5.89229L12.6462 0.353827L12.3692 0.0769043H0ZM12.9231 3.21537L15.3231 5.61537H12.9231V3.21537ZM3.69231 9.30767V11.1538H14.7692V9.30767H3.69231ZM19.3846 11.1538V13C17.8154 13.2769 16.6154 14.5692 16.6154 16.2308C16.6154 18.0769 18 19.4615 19.8462 19.4615H20.7692C21.5077 19.4615 22.1538 20.1077 22.1538 20.8461C22.1538 21.5846 21.5077 22.2308 20.7692 22.2308H17.5385V24.0769H19.3846V25.9231H21.2308V24.0769C22.8 23.8 24 22.5077 24 20.8461C24 19 22.6154 17.6154 20.7692 17.6154H19.8462C19.1077 17.6154 18.4615 16.9692 18.4615 16.2308C18.4615 15.4923 19.1077 14.8461 19.8462 14.8461H23.0769V13H21.2308V11.1538H19.3846ZM3.69231 13.9231V15.7692H10.1538V13.9231H3.69231ZM12 13.9231V15.7692H14.7692V13.9231H12ZM3.69231 17.6154V19.4615H10.1538V17.6154H3.69231ZM12 17.6154V19.4615H14.7692V17.6154H12Z" fill="white"/>
</svg>
