<svg width="19" height="19" viewBox="0 0 19 19" fill="none" xmlns="http://www.w3.org/2000/svg">
<path d="M9.25 17.5H13.5C14.5609 17.5 15.5783 17.0786 16.3284 16.3284C17.0786 15.5783 17.5 14.5609 17.5 13.5V11M9.25 17.5H5C3.93913 17.5 2.92172 17.0786 2.17157 16.3284C1.42143 15.5783 1 14.5609 1 13.5V9.25M9.25 17.5V12.25C9.25 11.4544 8.93393 10.6913 8.37132 10.1287C7.80871 9.56607 7.04565 9.25 6.25 9.25H1M1 9.25V5C1 3.93913 1.42143 2.92172 2.17157 2.17157C2.92172 1.42143 3.93913 1 5 1H7.5M11 1H16.5C16.776 1 17.026 1.112 17.207 1.293M17.207 1.293C17.3946 1.48049 17.4999 1.73481 17.5 2V7.5M17.207 1.293L16.5 2L11 7.5" stroke="#7B7B7B" stroke-width="1.5" stroke-linecap="round" stroke-linejoin="round"/>
</svg>
