<svg width="50" height="50" viewBox="0 0 50 50" fill="none" xmlns="http://www.w3.org/2000/svg">
<path d="M11.7647 23.5294H23.5294V11.7647H26.4706V23.5294H38.2353V26.4706H26.4706V38.2353H23.5294V26.4706H11.7647V23.5294ZM8.82353 0H41.1765C43.5166 0 45.7609 0.929619 47.4156 2.58435C49.0704 4.23908 50 6.48338 50 8.82353V41.1765C50 43.5166 49.0704 45.7609 47.4156 47.4156C45.7609 49.0704 43.5166 50 41.1765 50H8.82353C6.48338 50 4.23908 49.0704 2.58435 47.4156C0.929619 45.7609 0 43.5166 0 41.1765V8.82353C0 6.48338 0.929619 4.23908 2.58435 2.58435C4.23908 0.929619 6.48338 0 8.82353 0ZM8.82353 2.94118C7.26343 2.94118 5.76723 3.56092 4.66408 4.66408C3.56092 5.76723 2.94118 7.26343 2.94118 8.82353V41.1765C2.94118 42.7366 3.56092 44.2328 4.66408 45.3359C5.76723 46.4391 7.26343 47.0588 8.82353 47.0588H41.1765C42.7366 47.0588 44.2328 46.4391 45.3359 45.3359C46.4391 44.2328 47.0588 42.7366 47.0588 41.1765V8.82353C47.0588 7.26343 46.4391 5.76723 45.3359 4.66408C44.2328 3.56092 42.7366 2.94118 41.1765 2.94118H8.82353Z" fill="white" fill-opacity="0.25"/>
</svg>
