<svg width="82" height="70" viewBox="0 0 82 70" fill="none" xmlns="http://www.w3.org/2000/svg">
<path d="M63.3288 38.9082C63.4228 39.1904 63.4603 39.4883 63.4391 39.785C63.418 40.0817 63.3386 40.3713 63.2055 40.6373C63.0724 40.9032 62.8882 41.1404 62.6635 41.3352C62.4387 41.5299 62.1777 41.6785 61.8955 41.7724L51.7067 45.1687C51.1369 45.3584 50.515 45.314 49.9778 45.0453C49.4407 44.7765 49.0323 44.3053 48.8426 43.7355C48.6528 43.1656 48.6972 42.5437 48.966 42.0065C49.2348 41.4694 49.7059 41.061 50.2758 40.8713L60.4646 37.475C60.7467 37.381 61.0447 37.3435 61.3413 37.3646C61.638 37.3858 61.9276 37.4651 62.1936 37.5982C62.4596 37.7313 62.6967 37.9155 62.8915 38.1403C63.0863 38.3651 63.2349 38.626 63.3288 38.9082Z" fill="white" fill-opacity="0.25"/>
<path fill-rule="evenodd" clip-rule="evenodd" d="M1.59659 25.9225L9.10459 28.4244V47.5476C9.1046 48.0184 9.25138 48.4775 9.52449 48.861C9.7976 49.2445 10.1835 49.5333 10.6284 49.6873L40.0446 59.8693C40.5097 60.0346 41.0162 60.0433 41.4868 59.8942L41.5185 59.8851L41.5525 59.8738L70.9777 49.6873C71.4226 49.5333 71.8085 49.2445 72.0816 48.861C72.3547 48.4775 72.5015 48.0184 72.5015 47.5476V28.4244L80.0095 25.9225C80.3559 25.8073 80.6692 25.6101 80.9229 25.3477C81.1766 25.0853 81.3631 24.7655 81.4665 24.4155C81.5699 24.0655 81.5871 23.6956 81.5168 23.3375C81.4464 22.9794 81.2905 22.6436 81.0624 22.3587L72.0057 11.0378C71.7371 10.7034 71.379 10.4521 70.9732 10.3133L41.5434 0.124475C41.0638 -0.0414915 40.5423 -0.0414915 40.0627 0.124475L10.6329 10.3133C10.2271 10.4521 9.86903 10.7034 9.60045 11.0378L0.543745 22.3587C0.315601 22.6436 0.159708 22.9794 0.0893476 23.3375C0.0189867 23.6956 0.0362441 24.0655 0.139649 24.4155C0.243054 24.7655 0.429542 25.0853 0.683223 25.3477C0.936903 25.6101 1.25026 25.8073 1.59659 25.9225ZM34.7328 35.26L38.5389 29.8259V54.5575L13.6329 45.9355V29.9323L32.163 36.109C32.6259 36.2629 33.1261 36.2631 33.5891 36.1097C34.0522 35.9563 34.4533 35.6597 34.7328 35.26ZM18.2904 12.4529L40.8031 20.2462L63.3158 12.4529L40.8031 4.65962L18.2904 12.4529ZM46.8733 35.2622L43.0672 29.8237V54.5575L67.9732 45.9355V29.9323L49.4431 36.109C48.9802 36.2629 48.48 36.2631 48.017 36.1097C47.5539 35.9563 47.1528 35.6575 46.8733 35.2577M12.1386 15.1156L6.10909 22.653L18.587 26.8123L31.9909 31.2795L37.2279 23.801L36.9223 23.6945L12.1386 15.1156ZM75.497 22.653L69.4675 15.1133L44.3782 23.801L49.6152 31.2795L75.497 22.653Z" fill="white" fill-opacity="0.25"/>
<circle cx="67" cy="57" r="13" fill="#4E82AF"/>
<path d="M67 67C72.5228 67 77 62.5228 77 57C77 51.4772 72.5228 47 67 47C61.4772 47 57 51.4772 57 57C57 62.5228 61.4772 67 67 67Z" stroke="white" stroke-opacity="0.25" stroke-width="2" stroke-linecap="round" stroke-linejoin="round"/>
<path d="M67 51V57L69.5 61" stroke="white" stroke-opacity="0.25" stroke-width="2" stroke-linecap="round" stroke-linejoin="round"/>
</svg>
