<svg width="83" height="60" viewBox="0 0 83 60" fill="none" xmlns="http://www.w3.org/2000/svg">
<path d="M63.8268 38.9082C63.9208 39.1904 63.9583 39.4883 63.9372 39.785C63.916 40.0817 63.8367 40.3713 63.7036 40.6373C63.5705 40.9032 63.3863 41.1404 63.1615 41.3352C62.9367 41.5299 62.6758 41.6785 62.3936 41.7724L52.2048 45.1687C51.6349 45.3584 51.013 45.314 50.4759 45.0453C49.9387 44.7765 49.5304 44.3053 49.3406 43.7355C49.1508 43.1656 49.1952 42.5437 49.464 42.0065C49.7328 41.4694 50.204 41.061 50.7738 40.8713L60.9626 37.475C61.2448 37.381 61.5427 37.3435 61.8394 37.3646C62.1361 37.3858 62.4256 37.4651 62.6916 37.5982C62.9576 37.7313 63.1948 37.9155 63.3895 38.1403C63.5843 38.3651 63.7329 38.626 63.8268 38.9082Z" fill="white" fill-opacity="0.25"/>
<path fill-rule="evenodd" clip-rule="evenodd" d="M2.09463 25.9225L9.60264 28.4244V47.5476C9.60265 48.0184 9.74942 48.4775 10.0225 48.861C10.2956 49.2445 10.6815 49.5333 11.1264 49.6873L40.5426 59.8693C41.0078 60.0346 41.5143 60.0433 41.9849 59.8942L42.0166 59.8851L42.0505 59.8738L71.4758 49.6873C71.9207 49.5333 72.3065 49.2445 72.5797 48.861C72.8528 48.4775 72.9995 48.0184 72.9996 47.5476V28.4244L80.5076 25.9225C80.8539 25.8073 81.1673 25.6101 81.4209 25.3477C81.6746 25.0853 81.8611 24.7655 81.9645 24.4155C82.0679 24.0655 82.0852 23.6956 82.0148 23.3375C81.9444 22.9794 81.7886 22.6436 81.5604 22.3587L72.5037 11.0378C72.2351 10.7034 71.8771 10.4521 71.4712 10.3133L42.0415 0.124475C41.5618 -0.0414915 41.0404 -0.0414915 40.5607 0.124475L11.131 10.3133C10.7251 10.4521 10.3671 10.7034 10.0985 11.0378L1.04179 22.3587C0.813648 22.6436 0.657755 22.9794 0.587394 23.3375C0.517034 23.6956 0.534291 24.0655 0.637696 24.4155C0.741101 24.7655 0.927589 25.0853 1.18127 25.3477C1.43495 25.6101 1.7483 25.8073 2.09463 25.9225ZM35.2308 35.26L39.0369 29.8259V54.5575L14.131 45.9355V29.9323L32.661 36.109C33.1239 36.2629 33.6241 36.2631 34.0872 36.1097C34.5502 35.9563 34.9514 35.6597 35.2308 35.26ZM18.7884 12.4529L41.3011 20.2462L63.8138 12.4529L41.3011 4.65962L18.7884 12.4529ZM47.3714 35.2622L43.5653 29.8237V54.5575L68.4712 45.9355V29.9323L49.9412 36.109C49.4783 36.2629 48.9781 36.2631 48.515 36.1097C48.052 35.9563 47.6508 35.6575 47.3714 35.2577M12.6366 15.1156L6.60714 22.653L19.085 26.8123L32.4889 31.2795L37.726 23.801L37.4203 23.6945L12.6366 15.1156ZM75.9951 22.653L69.9656 15.1133L44.8762 23.801L50.1133 31.2795L75.9951 22.653Z" fill="white" fill-opacity="0.25"/>
</svg>
