<svg width="60" height="61" viewBox="0 0 60 61" fill="none" xmlns="http://www.w3.org/2000/svg">
<path fill-rule="evenodd" clip-rule="evenodd" d="M15.982 0.5C16.7767 0.5 17.5388 0.815677 18.1007 1.37759C18.6626 1.93949 18.9783 2.7016 18.9783 3.49626V8.49004H38.9534V3.49626C38.9534 2.7016 39.2691 1.93949 39.831 1.37759C40.3929 0.815677 41.155 0.5 41.9496 0.5C42.7443 0.5 43.5064 0.815677 44.0683 1.37759C44.6302 1.93949 44.9459 2.7016 44.9459 3.49626V8.49004H51.9372C52.9967 8.49004 54.0129 8.91094 54.7621 9.66015C55.5113 10.4094 55.9322 11.4255 55.9322 12.4851V29.4639C55.9322 30.2585 55.6165 31.0206 55.0546 31.5826C54.4927 32.1445 53.7306 32.4601 52.9359 32.4601C52.1413 32.4601 51.3792 32.1445 50.8173 31.5826C50.2554 31.0206 49.9397 30.2585 49.9397 29.4639V26.4676H5.99448V50.4377H28.9658C29.7605 50.4377 30.5226 50.7534 31.0845 51.3153C31.6464 51.8772 31.9621 52.6393 31.9621 53.434C31.9621 54.2286 31.6464 54.9907 31.0845 55.5527C30.5226 56.1146 29.7605 56.4302 28.9658 56.4302H3.99697C2.93743 56.4302 1.92128 56.0093 1.17207 55.2601C0.422855 54.5109 0.00195313 53.4948 0.00195312 52.4352V12.4851C0.00195312 11.4255 0.422855 10.4094 1.17207 9.66015C1.92128 8.91094 2.93743 8.49004 3.99697 8.49004H12.9858V3.49626C12.9858 2.7016 13.3014 1.93949 13.8633 1.37759C14.4253 0.815677 15.1874 0.5 15.982 0.5ZM5.99448 20.4751H49.9397V14.4826H5.99448V20.4751ZM41.0707 37.3341C40.7964 37.0397 40.4656 36.8036 40.0981 36.6398C39.7306 36.476 39.3338 36.388 38.9315 36.3809C38.5292 36.3738 38.1296 36.4478 37.7565 36.5985C37.3834 36.7492 37.0445 36.9735 36.76 37.258C36.4754 37.5425 36.2511 37.8814 36.1004 38.2545C35.9497 38.6276 35.8757 39.0272 35.8828 39.4295C35.8899 39.8318 35.978 40.2286 36.1418 40.5961C36.3055 40.9637 36.5416 41.2945 36.836 41.5688L43.7074 48.4402L36.836 55.3116C36.5416 55.5859 36.3055 55.9167 36.1418 56.2843C35.978 56.6518 35.8899 57.0486 35.8828 57.4509C35.8757 57.8532 35.9497 58.2528 36.1004 58.6259C36.2511 58.999 36.4754 59.3379 36.76 59.6224C37.0445 59.9069 37.3834 60.1312 37.7565 60.2819C38.1296 60.4326 38.5292 60.5066 38.9315 60.4995C39.3338 60.4924 39.7306 60.4044 40.0981 60.2406C40.4656 60.0769 40.7964 59.8407 41.0707 59.5464L47.9422 52.6749L54.8136 59.5464C55.0879 59.8407 55.4187 60.0769 55.7862 60.2406C56.1538 60.4044 56.5505 60.4924 56.9528 60.4995C57.3551 60.5066 57.7548 60.4326 58.1278 60.2819C58.5009 60.1312 58.8398 59.9069 59.1244 59.6224C59.4089 59.3379 59.6332 58.999 59.7839 58.6259C59.9346 58.2528 60.0086 57.8532 60.0015 57.4509C59.9944 57.0486 59.9063 56.6518 59.7426 56.2843C59.5788 55.9167 59.3427 55.5859 59.0483 55.3116L52.1769 48.4402L59.0483 41.5688C59.3427 41.2945 59.5788 40.9637 59.7426 40.5961C59.9063 40.2286 59.9944 39.8318 60.0015 39.4295C60.0086 39.0272 59.9346 38.6276 59.7839 38.2545C59.6332 37.8814 59.4089 37.5425 59.1244 37.258C58.8398 36.9735 58.5009 36.7492 58.1278 36.5985C57.7548 36.4478 57.3551 36.3738 56.9528 36.3809C56.5505 36.388 56.1538 36.476 55.7862 36.6398C55.4187 36.8036 55.0879 37.0397 54.8136 37.3341L47.9422 44.2055L41.0707 37.3341Z" fill="white" fill-opacity="0.25"/>
</svg>
