<svg width="62" height="62" viewBox="0 0 62 62" fill="none" xmlns="http://www.w3.org/2000/svg">
<path d="M42.2259 1.2681C39.6976 0.302561 36.8984 0.302561 34.3701 1.2681L21.7477 6.08764C20.7153 6.48148 19.8274 7.17674 19.201 8.08174C18.5747 8.98674 18.2393 10.059 18.2392 11.157V15.1401C19.4501 14.9886 20.6754 14.9886 21.8863 15.1401V11.157C21.8859 10.7911 21.9972 10.4336 22.2055 10.1317C22.4139 9.82987 22.7094 9.59776 23.0533 9.46602L35.6794 4.64648C37.365 4.00279 39.2311 4.00279 40.9166 4.64648L53.5391 9.46602C53.8829 9.59776 54.1785 9.82987 54.3869 10.1317C54.5952 10.4336 54.7065 10.7911 54.7061 11.157V27.4153C56.0142 28.0791 57.2299 28.8721 58.3532 29.7943V11.157C58.3533 10.0594 58.0185 8.98747 57.3929 8.08252C56.7672 7.17757 55.8801 6.48206 54.8484 6.08764L42.2259 1.2681ZM36.6131 24.1926C37.6768 24.5995 38.5859 25.3262 39.2134 26.271C38.0084 26.6735 36.8446 27.1888 35.7378 27.81C35.6048 27.711 35.4587 27.6306 35.3038 27.571L22.6813 22.7514C20.9958 22.1077 19.1297 22.1077 17.4441 22.7514L4.81802 27.571C4.47358 27.7029 4.17759 27.9356 3.9692 28.2382C3.76081 28.5408 3.64984 28.899 3.65096 29.2656V46.5739C3.65058 46.9399 3.76189 47.2974 3.97023 47.5992C4.17857 47.9011 4.47416 48.1332 4.81802 48.265L17.4441 53.0809C19.1297 53.7246 20.9958 53.7246 22.6813 53.0809L26.6019 51.5854C26.9982 52.7441 27.4942 53.8485 28.0899 54.8986L23.9906 56.4629C21.4623 57.4284 18.6631 57.4284 16.1348 56.4629L3.51238 51.6433C2.48 51.2495 1.59209 50.5542 0.965749 49.6492C0.339409 48.7442 0.00405265 47.672 0.00390625 46.5739V29.2656C0.00405265 28.1675 0.339409 27.0953 0.965749 26.1903C1.59209 25.2853 2.48 24.5901 3.51238 24.1962L16.1312 19.3767C18.6606 18.4102 21.4612 18.4102 23.9906 19.3767L36.6131 24.1926ZM30.8033 28.889C31.2027 28.7368 31.6432 28.7289 32.0479 28.8665C32.4526 29.0042 32.7957 29.2788 33.0171 29.6422C31.6955 30.6979 30.5142 31.9159 29.5013 33.2668L21.8863 36.1745V45.1907C21.8863 45.6709 21.6941 46.1314 21.3522 46.4709C21.0102 46.8105 20.5464 47.0012 20.0627 47.0012C19.5791 47.0012 19.1153 46.8105 18.7733 46.4709C18.4313 46.1314 18.2392 45.6709 18.2392 45.1907V36.1745L8.0092 32.271C7.78554 32.1854 7.58104 32.0569 7.40739 31.8929C7.23374 31.7288 7.09434 31.5324 6.99715 31.3149C6.89995 31.0973 6.84687 30.8629 6.84092 30.625C6.83497 30.3871 6.87629 30.1503 6.96249 29.9282C7.0487 29.7062 7.17812 29.5032 7.34336 29.3307C7.5086 29.1583 7.70642 29.0199 7.92554 28.9234C8.14465 28.8269 8.38076 28.7742 8.62039 28.7683C8.86002 28.7624 9.09848 28.8034 9.32214 28.889L20.0627 32.9952L30.8033 28.889ZM51.3946 11.8233C51.2209 11.3754 50.8751 11.0143 50.4333 10.8194C49.9915 10.6246 49.4898 10.6118 49.0386 10.7841L38.9508 14.6368C38.5295 14.7977 38.0629 14.7977 37.6416 14.6368L27.5538 10.7841C27.1057 10.6256 26.6129 10.6472 26.1806 10.8444C25.7484 11.0415 25.4108 11.3986 25.24 11.8394C25.0691 12.2802 25.0786 12.7698 25.2662 13.2038C25.4539 13.6378 25.8049 13.9818 26.2445 14.1625L36.3323 18.0152C37.5964 18.498 38.996 18.498 40.2601 18.0152L50.3479 14.1625C50.799 13.9899 51.1627 13.6466 51.359 13.208C51.5553 12.7694 51.5681 12.2713 51.3946 11.8233ZM62.0039 45.1618C62.0039 49.4833 60.2748 53.6279 57.197 56.6837C54.1192 59.7395 49.9448 61.4562 45.5921 61.4562C41.2395 61.4562 37.0651 59.7395 33.9873 56.6837C30.9095 53.6279 29.1804 49.4833 29.1804 45.1618C29.1804 40.8402 30.9095 36.6956 33.9873 33.6398C37.0651 30.584 41.2395 28.8673 45.5921 28.8673C49.9448 28.8673 54.1192 30.584 57.197 33.6398C60.2748 36.6956 62.0039 40.8402 62.0039 45.1618ZM37.0106 43.8799L36.9997 43.8908C36.6659 44.2268 36.4774 44.679 36.4745 45.1509V45.1726C36.4775 45.6481 36.6687 46.1033 37.007 46.44L44.3011 53.682C44.4704 53.8503 44.6714 53.9839 44.8927 54.0751C45.114 54.1662 45.3512 54.2133 45.5909 54.2134C45.8305 54.2136 46.0677 54.1669 46.2892 54.076C46.5106 53.9852 46.7118 53.8519 46.8814 53.6838C47.0509 53.5157 47.1855 53.3161 47.2773 53.0963C47.3692 52.8766 47.4165 52.6411 47.4167 52.4032C47.4169 52.1653 47.3698 51.9297 47.2783 51.7099C47.1868 51.49 47.0525 51.2902 46.8832 51.1219L42.7 46.9723H52.8863C53.3699 46.9723 53.8337 46.7815 54.1757 46.442C54.5177 46.1024 54.7098 45.6419 54.7098 45.1618C54.7098 44.6816 54.5177 44.2211 54.1757 43.8815C53.8337 43.542 53.3699 43.3513 52.8863 43.3513H42.7L46.8832 39.2016C47.2251 38.8616 47.417 38.4007 47.4167 37.9203C47.4163 37.4399 47.2238 36.9792 46.8814 36.6398C46.539 36.3003 46.0747 36.1097 45.5909 36.1101C45.107 36.1104 44.643 36.3016 44.3011 36.6416L37.0106 43.8799Z" fill="white" fill-opacity="0.25"/>
</svg>
